<svg width="49" height="64" viewBox="0 0 49 64" fill="none" xmlns="http://www.w3.org/2000/svg">
<g id="Layer 2">
<g id="Layer 1">
<path id="Vector" d="M47.8991 48.4285V56.1392C47.8991 57.8639 47.2139 59.518 45.9944 60.7376C44.7748 61.9571 43.1207 62.6423 41.3959 62.6423H7.66053C5.93729 62.6405 4.28523 61.9547 3.0672 60.7357C1.84917 59.5167 1.16476 57.8641 1.16431 56.1409V7.54116C1.16431 5.81671 1.84922 4.16288 3.06842 2.94335C4.28763 1.72382 5.94128 1.03847 7.66572 1.03801H41.4011C43.1259 1.03801 44.78 1.72316 45.9995 2.94274C47.2191 4.16231 47.9043 5.81641 47.9043 7.54116V21.2792" fill="white"/>
<path id="Vector_2" d="M1.03809 55.9368V52.1048C1.03809 53.8295 1.72324 55.4836 2.94281 56.7032C4.16239 57.9228 5.81649 58.6079 7.54123 58.6079H41.2766C43.0014 58.6079 44.6555 57.9228 45.8751 56.7032C47.0946 55.4836 47.7798 53.8295 47.7798 52.1048V55.9368C47.7798 57.6615 47.0946 59.3156 45.8751 60.5352C44.6555 61.7548 43.0014 62.4399 41.2766 62.4399H7.54123C5.81649 62.4399 4.16239 61.7548 2.94281 60.5352C1.72324 59.3156 1.03809 57.6615 1.03809 55.9368Z" fill="#E7E7E7"/>
<path id="Vector_3" d="M41.2714 63.6803H35.7474V61.6043H41.2714C42.7204 61.6029 44.1097 61.0267 45.1343 60.0021C46.1589 58.9775 46.7351 57.5882 46.7365 56.1392V7.54116C46.7351 6.09214 46.1589 4.70286 45.1343 3.67824C44.1097 2.65363 42.7204 2.0774 41.2714 2.07602H7.53597C6.08785 2.07877 4.6999 2.65561 3.67641 3.68007C2.65291 4.70454 2.0774 6.09304 2.07602 7.54116V56.1409C2.0774 57.5899 2.65363 58.9792 3.67824 60.0038C4.70286 61.0284 6.09214 61.6047 7.54116 61.606L35.7474 61.606V63.6821L7.54116 63.6821C5.54182 63.6798 3.62503 62.8845 2.21128 61.4708C0.797537 60.057 0.00228941 58.1402 0 56.1409L0 7.54116C0.00228941 5.54182 0.797537 3.62503 2.21128 2.21128C3.62503 0.797538 5.54182 0.00228941 7.54116 0L41.2766 0C43.2759 0.00228941 45.1927 0.797538 46.6064 2.21128C48.0202 3.62503 48.8154 5.54182 48.8177 7.54116V56.1409C48.815 58.1408 48.0188 60.058 46.604 61.4715C45.1892 62.885 43.2713 63.6794 41.2714 63.6803Z" fill="#54BAE0"/>
<path id="Vector_4" d="M32.3635 28.1007H16.4473V30.1767H32.3635V28.1007Z" fill="#54BAE0"/>
<path id="Vector_5" d="M32.3635 33.1109H16.4473V35.1869H32.3635V33.1109Z" fill="#54BAE0"/>
<path id="Vector_6" d="M32.3635 38.1227H16.4473V40.1988H32.3635V38.1227Z" fill="#54BAE0"/>
<g id="Group" opacity="0.5">
<path id="Vector_7" d="M6.00491 6.21942H12.0219C12.6897 6.21942 12.6914 5.18141 12.0219 5.18141H6.00491C5.33712 5.18141 5.33539 6.21942 6.00491 6.21942Z" fill="#7490A8"/>
<path id="Vector_8" d="M14.5115 6.21942H29.4485C30.1163 6.21942 30.118 5.18141 29.4485 5.18141H14.5115C13.8437 5.18141 13.842 6.21942 14.5115 6.21942Z" fill="#7490A8"/>
</g>
<g id="OFFER">
<path id="Vector_9" d="M39.6963 18.3262H39.0869V21.0859C39.0869 21.4492 39.0068 21.7168 38.8467 21.8887C38.6865 22.0605 38.4775 22.1465 38.2197 22.1465C37.9424 22.1465 37.7275 22.0566 37.5752 21.877C37.4229 21.6973 37.3467 21.4336 37.3467 21.0859V14.4766C37.3467 14.1016 37.4307 13.8301 37.5986 13.6621C37.7666 13.4941 38.0381 13.4102 38.4131 13.4102H41.2432C41.6338 13.4102 41.9678 13.4277 42.2451 13.4629C42.5225 13.4941 42.7725 13.5605 42.9951 13.6621C43.2646 13.7754 43.5029 13.9375 43.71 14.1484C43.917 14.3594 44.0732 14.6055 44.1787 14.8867C44.2881 15.1641 44.3428 15.459 44.3428 15.7715C44.3428 16.4121 44.1611 16.9238 43.7979 17.3066C43.4385 17.6895 42.8916 17.9609 42.1572 18.1211C42.4658 18.2852 42.7607 18.5273 43.042 18.8477C43.3232 19.168 43.5732 19.5098 43.792 19.873C44.0146 20.2324 44.1865 20.5586 44.3076 20.8516C44.4326 21.1406 44.4951 21.3398 44.4951 21.4492C44.4951 21.5625 44.458 21.6758 44.3838 21.7891C44.3135 21.8984 44.2158 21.9844 44.0908 22.0469C43.9658 22.1133 43.8213 22.1465 43.6572 22.1465C43.4619 22.1465 43.2979 22.0996 43.165 22.0059C43.0322 21.916 42.917 21.8008 42.8193 21.6602C42.7256 21.5195 42.5967 21.3125 42.4326 21.0391L41.7354 19.8789C41.4854 19.4531 41.2607 19.1289 41.0615 18.9062C40.8662 18.6836 40.667 18.5312 40.4639 18.4492C40.2607 18.3672 40.0049 18.3262 39.6963 18.3262ZM40.6924 14.7168H39.0869V17.0781H40.6455C41.0635 17.0781 41.415 17.043 41.7002 16.9727C41.9854 16.8984 42.2021 16.7754 42.3506 16.6035C42.5029 16.4277 42.5791 16.1875 42.5791 15.8828C42.5791 15.6445 42.5186 15.4355 42.3975 15.2559C42.2764 15.0723 42.1084 14.9355 41.8936 14.8457C41.6904 14.7598 41.29 14.7168 40.6924 14.7168Z" fill="#54BAE0"/>
<path id="Vector_10" d="M35.0146 14.752H31.0947V16.8613H34.7041C34.9697 16.8613 35.167 16.9219 35.2959 17.043C35.4287 17.1602 35.4951 17.3164 35.4951 17.5117C35.4951 17.707 35.4307 17.8672 35.3018 17.9922C35.1729 18.1133 34.9736 18.1738 34.7041 18.1738H31.0947V20.6172H35.1494C35.4229 20.6172 35.6279 20.6816 35.7646 20.8105C35.9053 20.9355 35.9756 21.1035 35.9756 21.3145C35.9756 21.5176 35.9053 21.6836 35.7646 21.8125C35.6279 21.9375 35.4229 22 35.1494 22H30.4209C30.042 22 29.7686 21.916 29.6006 21.748C29.4365 21.5801 29.3545 21.3086 29.3545 20.9336V14.4766C29.3545 14.2266 29.3916 14.0234 29.4658 13.8672C29.54 13.707 29.6553 13.5918 29.8115 13.5215C29.9717 13.4473 30.1748 13.4102 30.4209 13.4102H35.0146C35.292 13.4102 35.4971 13.4727 35.6299 13.5977C35.7666 13.7188 35.835 13.8789 35.835 14.0781C35.835 14.2812 35.7666 14.4453 35.6299 14.5703C35.4971 14.6914 35.292 14.752 35.0146 14.752Z" fill="#54BAE0"/>
<path id="Vector_11" d="M27.2334 14.752H23.8057V16.9492H26.6709C26.9365 16.9492 27.1338 17.0098 27.2627 17.1309C27.3955 17.248 27.4619 17.4062 27.4619 17.6055C27.4619 17.8047 27.3955 17.9629 27.2627 18.0801C27.1299 18.1973 26.9326 18.2559 26.6709 18.2559H23.8057V21.0859C23.8057 21.4453 23.7236 21.7129 23.5596 21.8887C23.3994 22.0605 23.1924 22.1465 22.9385 22.1465C22.6807 22.1465 22.4697 22.0586 22.3057 21.8828C22.1455 21.707 22.0654 21.4414 22.0654 21.0859V14.4766C22.0654 14.2266 22.1025 14.0234 22.1768 13.8672C22.251 13.707 22.3662 13.5918 22.5225 13.5215C22.6826 13.4473 22.8857 13.4102 23.1318 13.4102H27.2334C27.5107 13.4102 27.7158 13.4727 27.8486 13.5977C27.9854 13.7188 28.0537 13.8789 28.0537 14.0781C28.0537 14.2812 27.9854 14.4453 27.8486 14.5703C27.7158 14.6914 27.5107 14.752 27.2334 14.752Z" fill="#54BAE0"/>
<path id="Vector_12" d="M19.9795 14.752H16.5518V16.9492H19.417C19.6826 16.9492 19.8799 17.0098 20.0088 17.1309C20.1416 17.248 20.208 17.4062 20.208 17.6055C20.208 17.8047 20.1416 17.9629 20.0088 18.0801C19.876 18.1973 19.6787 18.2559 19.417 18.2559H16.5518V21.0859C16.5518 21.4453 16.4697 21.7129 16.3057 21.8887C16.1455 22.0605 15.9385 22.1465 15.6846 22.1465C15.4268 22.1465 15.2158 22.0586 15.0518 21.8828C14.8916 21.707 14.8115 21.4414 14.8115 21.0859V14.4766C14.8115 14.2266 14.8486 14.0234 14.9229 13.8672C14.9971 13.707 15.1123 13.5918 15.2686 13.5215C15.4287 13.4473 15.6318 13.4102 15.8779 13.4102H19.9795C20.2568 13.4102 20.4619 13.4727 20.5947 13.5977C20.7314 13.7188 20.7998 13.8789 20.7998 14.0781C20.7998 14.2812 20.7314 14.4453 20.5947 14.5703C20.4619 14.6914 20.2568 14.752 19.9795 14.752Z" fill="#54BAE0"/>
<path id="Vector_13" d="M9.12207 13.2637C10.0127 13.2637 10.7764 13.4453 11.4131 13.8086C12.0537 14.168 12.5381 14.6816 12.8662 15.3496C13.1943 16.0137 13.3584 16.7949 13.3584 17.6934C13.3584 18.3574 13.2686 18.9609 13.0889 19.5039C12.9092 20.0469 12.6396 20.5176 12.2803 20.916C11.9209 21.3145 11.4795 21.6191 10.9561 21.8301C10.4326 22.041 9.83301 22.1465 9.15723 22.1465C8.48535 22.1465 7.88379 22.0391 7.35254 21.8242C6.82129 21.6055 6.37793 21.2988 6.02246 20.9043C5.66699 20.5098 5.39746 20.0352 5.21387 19.4805C5.03418 18.9258 4.94434 18.3262 4.94434 17.6816C4.94434 17.0215 5.03809 16.416 5.22559 15.8652C5.41699 15.3145 5.69238 14.8457 6.05176 14.459C6.41113 14.0723 6.84863 13.7773 7.36426 13.5742C7.87988 13.3672 8.46582 13.2637 9.12207 13.2637ZM11.5947 17.6816C11.5947 17.0527 11.4932 16.5078 11.29 16.0469C11.0869 15.5859 10.7959 15.2383 10.417 15.0039C10.042 14.7656 9.61035 14.6465 9.12207 14.6465C8.77441 14.6465 8.45215 14.7129 8.15527 14.8457C7.8623 14.9746 7.6084 15.1641 7.39355 15.4141C7.18262 15.6641 7.01465 15.9844 6.88965 16.375C6.76855 16.7617 6.70801 17.1973 6.70801 17.6816C6.70801 18.1699 6.76855 18.6113 6.88965 19.0059C7.01465 19.4004 7.18848 19.7285 7.41113 19.9902C7.6377 20.248 7.89551 20.4414 8.18457 20.5703C8.47754 20.6992 8.79785 20.7637 9.14551 20.7637C9.59082 20.7637 9.99902 20.6523 10.3701 20.4297C10.7451 20.207 11.042 19.8633 11.2607 19.3984C11.4834 18.9336 11.5947 18.3613 11.5947 17.6816Z" fill="#54BAE0"/>
</g>
</g>
</g>
</svg>
